<svg width="1921" height="1931" viewBox="0 0 1921 1931" fill="none" xmlns="http://www.w3.org/2000/svg">
<g filter="url(#filter0_d)">
<path fill-rule="evenodd" clip-rule="evenodd" d="M1916.26 848.922C1916.26 1317.77 1536.18 1697.84 1067.34 1697.84C598.49 1697.84 218.415 1317.77 218.415 848.922C218.415 380.076 598.49 0 1067.34 0C1536.18 0 1916.26 380.076 1916.26 848.922Z" fill="#F2F1FD"/>
<path fill-rule="evenodd" clip-rule="evenodd" d="M784.751 225.377V237.721H296.49V235.152C296.49 216.446 304.057 199.492 316.3 187.237C328.542 174.968 345.447 167.385 364.125 167.385C384.059 167.385 401.968 176.039 414.348 189.782V171.629C414.348 142.899 425.975 116.888 444.753 98.0573C463.543 79.2257 489.497 67.5874 518.167 67.5874C565.489 67.5874 605.395 99.3305 617.902 142.709C635.384 129.307 657.216 121.322 680.921 121.322C738.259 121.322 784.751 167.915 784.751 225.377Z" fill="#CEC5F7"/>
<mask id="mask0" mask-type="alpha" maskUnits="userSpaceOnUse" x="10" y="440" width="349" height="618">
<path d="M10.1877 440.323H358.151V1057.59H10.1877V440.323Z" fill="white"/>
</mask>
<g mask="url(#mask0)">
<path fill-rule="evenodd" clip-rule="evenodd" d="M184.17 1057.59C88.0823 1057.59 10.1877 979.553 10.1877 883.285V614.632C10.1877 518.363 88.0823 440.322 184.17 440.322C280.256 440.322 358.151 518.363 358.151 614.632V883.285C358.151 979.553 280.256 1057.59 184.17 1057.59Z" fill="#EFD4DC"/>
</g>
<path fill-rule="evenodd" clip-rule="evenodd" d="M675.213 977.104C675.213 1090.7 583.13 1182.78 469.538 1182.78C355.946 1182.78 263.862 1090.7 263.862 977.104C263.862 863.514 355.946 771.429 469.538 771.429C583.13 771.429 675.213 863.514 675.213 977.104Z" fill="#E3C3BE"/>
<path fill-rule="evenodd" clip-rule="evenodd" d="M184.622 1760.77C183.334 1760.77 182.291 1759.72 182.291 1758.43V638.598C182.291 637.303 183.334 636.254 184.622 636.254C185.909 636.254 186.952 637.303 186.952 638.598V1758.43C186.952 1759.72 185.909 1760.77 184.622 1760.77Z" fill="#2B1841"/>
<path fill-rule="evenodd" clip-rule="evenodd" d="M468.955 1760.77C467.667 1760.77 466.624 1759.72 466.624 1758.43V987.022C466.624 985.727 467.667 984.679 468.955 984.679C470.243 984.679 471.286 985.727 471.286 987.022V1758.43C471.286 1759.72 470.243 1760.77 468.955 1760.77Z" fill="#2B1841"/>
<path fill-rule="evenodd" clip-rule="evenodd" d="M184.633 764.437C184.153 764.437 183.669 764.29 183.252 763.985C182.206 763.221 181.979 761.754 182.743 760.708L293.42 609.248C294.184 608.204 295.649 607.974 296.695 608.739C297.74 609.503 297.968 610.971 297.204 612.016L186.527 763.476C186.067 764.103 185.356 764.437 184.633 764.437Z" fill="#2B1841"/>
<path fill-rule="evenodd" clip-rule="evenodd" d="M184.599 853C184.023 853 183.447 852.792 182.994 852.373L73.4997 750.996C72.5495 750.118 72.4997 748.641 73.3855 747.699C74.2712 746.758 75.7616 746.705 76.7117 747.585L186.205 848.961C187.155 849.841 187.206 851.317 186.319 852.26C185.856 852.752 185.228 853 184.599 853Z" fill="#2B1841"/>
<path fill-rule="evenodd" clip-rule="evenodd" d="M468.97 1059.26C468.299 1059.26 467.633 1058.97 467.169 1058.42C466.339 1057.42 466.473 1055.95 467.466 1055.12L586.302 956.091C587.296 955.261 588.774 955.396 589.602 956.388C590.432 957.38 590.297 958.857 589.304 959.684L470.47 1058.72C470.031 1059.08 469.499 1059.26 468.97 1059.26Z" fill="#2B1841"/>
<path fill-rule="evenodd" clip-rule="evenodd" d="M468.941 1119.85C468.51 1119.85 468.073 1119.73 467.682 1119.48L373.317 1058.93C372.226 1058.23 371.907 1056.77 372.604 1055.68C373.302 1054.59 374.751 1054.27 375.84 1054.97L470.205 1115.52C471.295 1116.22 471.613 1117.68 470.916 1118.77C470.47 1119.47 469.714 1119.85 468.941 1119.85Z" fill="#2B1841"/>
<path fill-rule="evenodd" clip-rule="evenodd" d="M221.084 1885.15H712.773V1393.46H221.084V1885.15Z" fill="#CEC5F7"/>
<mask id="mask1" mask-type="alpha" maskUnits="userSpaceOnUse" x="221" y="1393" width="492" height="270">
<path d="M221.084 1393.46H712.774V1662.32H221.084V1393.46Z" fill="white"/>
</mask>
<g mask="url(#mask1)">
<path d="M88.9079 1526.38C88.9079 1526.38 270.696 1402.93 307.867 1456.48C345.037 1510.03 305.751 1677.34 466.635 1661.24C627.522 1645.13 626.798 1362.91 520.427 1381.73C414.055 1400.56 405.394 1713.68 726.389 1507.64" stroke="#D093D4" stroke-width="17"/>
</g>
<mask id="mask2" mask-type="alpha" maskUnits="userSpaceOnUse" x="268" y="1716" width="445" height="170">
<path d="M268.212 1716.19H712.774V1885.15H268.212V1716.19Z" fill="white"/>
</mask>
<g mask="url(#mask2)">
<path d="M268.212 1987.85C268.212 1987.85 302.733 1777.02 474.505 1733.2C646.279 1689.38 667.324 1801.55 593.79 1833.01C520.256 1864.48 430.033 1733.72 735.593 1716.19" stroke="#D093D4" stroke-width="14"/>
</g>
<path fill-rule="evenodd" clip-rule="evenodd" d="M4 1884.12H438.168L221.084 1547.27L4 1884.12Z" fill="#C0989C"/>
<path fill-rule="evenodd" clip-rule="evenodd" d="M160.688 1716.22L142.78 1668.78L28.6447 1845.88L30.4206 1884.12H234.542L319.324 1699.71L231.682 1563.72L160.688 1716.22Z" fill="#ECE0CA"/>
<path fill-rule="evenodd" clip-rule="evenodd" d="M264.919 1884.12H417.816L415.077 1848.29L325.264 1708.93L264.919 1884.12Z" fill="#ECE0CA"/>
<path fill-rule="evenodd" clip-rule="evenodd" d="M1040.24 1686.23H815.34V1516.5H1016.54L1027.88 1564.89L1040.24 1686.23Z" fill="#E5BED1"/>
<path fill-rule="evenodd" clip-rule="evenodd" d="M1699.8 1907.89L767.333 1887.74V1679.4L1699.8 1652.61V1907.89Z" fill="#E5BED1"/>
<path opacity="0.2" fill-rule="evenodd" clip-rule="evenodd" d="M1699.8 1907.89L767.333 1887.74V1679.4L1699.8 1652.61V1907.89Z" fill="#3B2F46"/>
<path fill-rule="evenodd" clip-rule="evenodd" d="M1356.19 1792.98H961.992C961.073 1792.98 960.328 1792.23 960.328 1791.31C960.328 1790.39 961.073 1789.65 961.992 1789.65H1356.19C1357.11 1789.65 1357.86 1790.39 1357.86 1791.31C1357.86 1792.23 1357.11 1792.98 1356.19 1792.98Z" fill="#2B1841"/>
<path fill-rule="evenodd" clip-rule="evenodd" d="M1740.15 1780.73C1740.15 1848.23 1723.5 1903.62 1702.43 1907.9C1701.55 1908.08 1700.67 1908.18 1699.8 1908.18C1698.92 1908.18 1698.04 1908.08 1697.16 1907.9C1677.11 1903.82 1661.06 1853.37 1659.58 1790.25C1659.49 1787.1 1659.46 1783.94 1659.46 1780.73C1659.46 1710.44 1677.36 1652.89 1699.64 1652.89C1720.57 1652.89 1737.93 1703.67 1739.96 1768.1C1740.09 1772.25 1740.15 1776.47 1740.15 1780.73Z" fill="#2B1841"/>
<path fill-rule="evenodd" clip-rule="evenodd" d="M1878.42 1628.65V1907.9H1697.16C1677.11 1903.82 1661.06 1853.37 1659.58 1790.25C1678.88 1787.15 1705.36 1785.58 1739.96 1768.1C1741.95 1767.1 1743.97 1766.03 1746.01 1764.92C1764.74 1754.71 1780.94 1739.09 1793.02 1719.76C1796.26 1714.56 1799.46 1709.66 1802.61 1705.02C1826.93 1669.02 1847.55 1649.47 1861.12 1639.21C1872.08 1630.91 1878.42 1628.65 1878.42 1628.65Z" fill="#EFE6EC"/>
<path fill-rule="evenodd" clip-rule="evenodd" d="M1878.42 1628.65V1907.9H1861.11V1639.21C1872.08 1630.91 1878.42 1628.65 1878.42 1628.65Z" fill="#C8A4B7"/>
<path fill-rule="evenodd" clip-rule="evenodd" d="M1755.83 1790.31C1755.18 1790.31 1754.57 1789.9 1754.34 1789.25L1745.47 1763.52C1745.19 1762.7 1745.62 1761.81 1746.44 1761.53C1747.26 1761.25 1748.15 1761.68 1748.43 1762.5L1757.31 1788.23C1757.59 1789.05 1757.15 1789.94 1756.34 1790.22C1756.17 1790.28 1756 1790.31 1755.83 1790.31Z" fill="#2B1841"/>
<path fill-rule="evenodd" clip-rule="evenodd" d="M1775.61 1781.37C1774.97 1781.37 1774.37 1780.98 1774.14 1780.34L1763.54 1751.24C1763.24 1750.43 1763.66 1749.53 1764.47 1749.23C1765.28 1748.94 1766.19 1749.35 1766.48 1750.17L1777.08 1779.27C1777.38 1780.08 1776.96 1780.98 1776.14 1781.27C1775.97 1781.34 1775.79 1781.37 1775.61 1781.37Z" fill="#2B1841"/>
<path fill-rule="evenodd" clip-rule="evenodd" d="M1793.93 1765.04C1793.31 1765.04 1792.72 1764.67 1792.47 1764.06L1780.91 1735.08C1780.59 1734.27 1780.98 1733.36 1781.78 1733.04C1782.58 1732.72 1783.5 1733.11 1783.82 1733.92L1795.38 1762.9C1795.7 1763.7 1795.31 1764.61 1794.51 1764.93C1794.32 1765.01 1794.12 1765.04 1793.93 1765.04Z" fill="#2B1841"/>
<path fill-rule="evenodd" clip-rule="evenodd" d="M1801.16 1908.3C1801.13 1908.3 1801.09 1908.3 1801.05 1908.3C1800.19 1908.24 1799.54 1907.49 1799.6 1906.62C1802.98 1857.57 1860.27 1843.14 1860.85 1843C1861.69 1842.79 1862.53 1843.31 1862.74 1844.15C1862.94 1844.99 1862.43 1845.84 1861.59 1846.04C1861.03 1846.18 1805.95 1860.09 1802.72 1906.84C1802.67 1907.67 1801.98 1908.3 1801.16 1908.3Z" fill="#2B1841"/>
<path fill-rule="evenodd" clip-rule="evenodd" d="M1859.9 1804.88C1851.29 1804.88 1842.96 1801.35 1836.98 1795.13C1830.87 1788.78 1827.65 1780.08 1828.16 1771.28L1830.62 1728.22C1831.03 1721.04 1827.38 1714.41 1821.09 1710.93C1814.81 1707.44 1807.27 1707.85 1801.41 1712C1801.18 1712.16 1800.96 1712.32 1800.73 1712.49C1800.03 1713 1799.05 1712.85 1798.54 1712.15C1798.03 1711.45 1798.18 1710.47 1798.88 1709.96C1799.12 1709.78 1799.36 1709.61 1799.6 1709.44C1806.45 1704.6 1815.26 1704.12 1822.61 1708.18C1829.96 1712.26 1834.23 1720.01 1833.75 1728.4L1831.28 1771.46C1830.82 1779.51 1833.65 1787.15 1839.24 1792.96C1844.83 1798.78 1852.41 1801.9 1860.42 1801.74C1861.25 1801.72 1862 1802.42 1862.02 1803.28C1862.03 1804.15 1861.35 1804.86 1860.48 1804.88C1860.29 1804.88 1860.09 1804.88 1859.9 1804.88Z" fill="#2B1841"/>
<path fill-rule="evenodd" clip-rule="evenodd" d="M1721.39 1642.46C1720.82 1642.46 1720.24 1642.5 1719.65 1642.58C1716.11 1643.06 1713.63 1644.77 1712.08 1647.82C1707.04 1657.69 1711.77 1680.89 1725.77 1714.88C1733.38 1733.35 1741.85 1750.42 1746.16 1758.8C1746.51 1749.76 1746.97 1731.87 1746.04 1712.87C1744.32 1677.43 1738.66 1654.29 1729.68 1645.95C1727.16 1643.61 1724.44 1642.46 1721.39 1642.46ZM1747.53 1766.7C1746.93 1766.7 1746.36 1766.37 1746.06 1765.82C1745.94 1765.59 1733.45 1742.26 1722.69 1716.15C1708.11 1680.73 1703.54 1657.23 1709.11 1646.3C1711.17 1642.27 1714.57 1639.91 1719.21 1639.28C1723.95 1638.64 1728.24 1640.06 1731.95 1643.51C1755.02 1664.95 1749.44 1761.06 1749.19 1765.14C1749.15 1765.88 1748.61 1766.5 1747.89 1766.66C1747.77 1766.69 1747.65 1766.7 1747.53 1766.7Z" fill="#2B1841"/>
<path fill-rule="evenodd" clip-rule="evenodd" d="M1772.1 1663.91C1769.73 1663.91 1767.57 1664.68 1765.56 1666.21C1757.36 1672.45 1751.89 1691.28 1749.72 1720.67C1748.55 1736.54 1748.66 1751.58 1748.82 1759.13C1758.85 1744.25 1791.34 1693.64 1784.36 1672.54C1783.04 1668.56 1780.38 1665.97 1776.24 1664.62C1774.79 1664.15 1773.41 1663.91 1772.1 1663.91ZM1747.31 1765.94C1747.16 1765.94 1747 1765.92 1746.84 1765.87C1746.16 1765.67 1745.68 1765.06 1745.65 1764.35C1745.5 1760.91 1742.09 1679.9 1763.54 1663.56C1767.55 1660.51 1772.17 1659.8 1777.27 1661.45C1782.42 1663.13 1785.87 1666.5 1787.52 1671.49C1796.24 1697.83 1750.62 1762.5 1748.67 1765.24C1748.35 1765.68 1747.84 1765.94 1747.31 1765.94Z" fill="#2B1841"/>
<path fill-rule="evenodd" clip-rule="evenodd" d="M1627.23 1693.06L1513.18 1921.44L1185.29 1723.9C1174.78 1717.57 1161.74 1717.13 1150.82 1722.73L869.026 1867.23C815.306 1895.7 752.193 1894.13 699.906 1862.95C647.235 1831.52 615.783 1776.14 615.783 1714.8V1706.62V1506.15L856.791 1516.5L835.64 1650.21L996.836 1567.54L1067.83 1531.14C1131.6 1498.44 1206.91 1497.03 1271.86 1527.33L1627.23 1693.06Z" fill="#E5BED1"/>
<path fill-rule="evenodd" clip-rule="evenodd" d="M1637.61 1723.66C1637.28 1732.95 1635.59 1743.87 1632.64 1755.88C1627.53 1776.72 1618.59 1800.86 1606.28 1825.5C1602.03 1834.02 1597.58 1842.15 1593.04 1849.86C1586.65 1860.65 1580.05 1870.58 1573.47 1879.4C1550.01 1910.76 1526.63 1928.17 1513.18 1921.45C1498.23 1913.98 1499.8 1878.79 1514.79 1835.13C1518.04 1825.66 1521.94 1815.77 1526.43 1805.7C1528.81 1800.31 1531.38 1794.89 1534.11 1789.42C1545.7 1766.24 1558.69 1745.69 1571.47 1729.49C1578.8 1720.2 1586.07 1712.33 1592.96 1706.24C1606.65 1694.1 1618.85 1688.87 1627.22 1693.05C1634.83 1696.86 1638.15 1707.93 1637.61 1723.66Z" fill="#2B1841"/>
<path fill-rule="evenodd" clip-rule="evenodd" d="M1856.42 1690.01L1700.83 1921.9L1686.45 1912.28L1598.08 1853.19L1593.04 1849.86L1526.43 1805.7C1528.81 1800.31 1531.38 1794.89 1534.11 1789.42C1545.7 1766.24 1558.69 1745.69 1571.47 1729.49C1578.8 1720.2 1586.07 1712.33 1592.96 1706.24C1604.68 1711.9 1618.79 1718.71 1637.61 1723.66C1641.55 1724.71 1645.72 1725.67 1650.12 1726.51C1654.43 1727.34 1658.97 1728.08 1663.75 1728.67C1665.96 1728.95 1668.23 1729.17 1670.53 1729.39C1691.79 1731.35 1713.94 1727.4 1734.75 1718.08C1740.34 1715.58 1745.71 1713.29 1750.91 1711.19C1791.17 1694.84 1819.18 1690.09 1836.18 1689.13C1849.88 1688.35 1856.42 1690.01 1856.42 1690.01Z" fill="#EFE6EC"/>
<path fill-rule="evenodd" clip-rule="evenodd" d="M1629.62 1613.44C1628.48 1613.44 1627.32 1613.61 1626.14 1613.97C1622.72 1614.99 1620.54 1617.07 1619.48 1620.32C1616.03 1630.86 1624.31 1653.03 1643.42 1684.44C1653.8 1701.51 1664.83 1717.05 1670.38 1724.67C1669.33 1715.68 1667 1697.93 1663.13 1679.3C1655.92 1644.56 1646.74 1622.59 1636.58 1615.74C1634.29 1614.2 1631.99 1613.44 1629.62 1613.44ZM1672.7 1732.27C1672.19 1732.27 1671.7 1732.04 1671.38 1731.61C1671.22 1731.4 1655.25 1710.3 1640.58 1686.17C1620.67 1653.45 1612.5 1630.94 1616.31 1619.28C1617.72 1614.98 1620.71 1612.12 1625.19 1610.78C1629.78 1609.41 1634.23 1610.15 1638.43 1612.98C1664.55 1630.57 1673.97 1726.38 1674.36 1730.45C1674.43 1731.19 1674 1731.89 1673.31 1732.16C1673.11 1732.24 1672.91 1732.27 1672.7 1732.27Z" fill="#2B1841"/>
<path fill-rule="evenodd" clip-rule="evenodd" d="M1683.11 1626.76C1679.98 1626.76 1677.36 1627.89 1675.16 1630.18C1668.04 1637.62 1665.55 1657.07 1667.97 1686.44C1669.28 1702.3 1671.72 1717.14 1673.06 1724.58C1680.66 1708.32 1704.89 1653.27 1694.72 1633.51C1692.8 1629.78 1689.77 1627.64 1685.47 1626.95C1684.65 1626.82 1683.87 1626.76 1683.11 1626.76ZM1672.37 1731.55C1672.3 1731.55 1672.23 1731.55 1672.16 1731.54C1671.45 1731.45 1670.88 1730.92 1670.74 1730.22C1670.05 1726.85 1654.11 1647.35 1672.76 1627.88C1676.24 1624.24 1680.69 1622.82 1685.99 1623.66C1691.34 1624.52 1695.27 1627.32 1697.68 1631.99C1710.38 1656.66 1675.36 1727.62 1673.86 1730.63C1673.58 1731.2 1673 1731.55 1672.37 1731.55Z" fill="#2B1841"/>
<path fill-rule="evenodd" clip-rule="evenodd" d="M1856.42 1690.01L1700.83 1921.9L1686.45 1912.28L1836.18 1689.13C1849.88 1688.35 1856.42 1690.01 1856.42 1690.01Z" fill="#C8A4B7"/>
<path fill-rule="evenodd" clip-rule="evenodd" d="M1665.42 1756.21C1665.29 1756.21 1665.16 1756.2 1665.02 1756.16C1664.18 1755.94 1663.69 1755.08 1663.91 1754.25L1670.88 1727.93C1671.1 1727.09 1671.96 1726.59 1672.79 1726.81C1673.63 1727.04 1674.13 1727.89 1673.9 1728.73L1666.94 1755.05C1666.75 1755.75 1666.12 1756.21 1665.42 1756.21Z" fill="#2B1841"/>
<path fill-rule="evenodd" clip-rule="evenodd" d="M1686.83 1759.81C1686.71 1759.81 1686.58 1759.8 1686.46 1759.77C1685.61 1759.56 1685.1 1758.71 1685.31 1757.87L1692.72 1727.8C1692.93 1726.96 1693.78 1726.45 1694.62 1726.66C1695.46 1726.86 1695.97 1727.71 1695.76 1728.55L1688.35 1758.62C1688.17 1759.33 1687.54 1759.81 1686.83 1759.81Z" fill="#2B1841"/>
<path fill-rule="evenodd" clip-rule="evenodd" d="M1711.14 1756.46C1711.03 1756.46 1710.92 1756.45 1710.81 1756.43C1709.96 1756.24 1709.43 1755.41 1709.61 1754.57L1716.15 1724.06C1716.33 1723.21 1717.15 1722.67 1718.01 1722.85C1718.86 1723.04 1719.4 1723.87 1719.22 1724.71L1712.67 1755.22C1712.51 1755.96 1711.86 1756.46 1711.14 1756.46Z" fill="#2B1841"/>
<path fill-rule="evenodd" clip-rule="evenodd" d="M1637.66 1881.23C1637.34 1881.23 1637.01 1881.13 1636.73 1880.92C1636.04 1880.41 1635.89 1879.42 1636.41 1878.73C1665.69 1839.23 1721.73 1857.94 1722.29 1858.13C1723.11 1858.41 1723.54 1859.31 1723.26 1860.12C1722.98 1860.94 1722.09 1861.38 1721.27 1861.1C1720.73 1860.91 1666.83 1842.95 1638.92 1880.6C1638.62 1881.01 1638.14 1881.23 1637.66 1881.23Z" fill="#2B1841"/>
<path fill-rule="evenodd" clip-rule="evenodd" d="M1744.53 1826.82C1744.25 1826.82 1743.96 1826.74 1743.71 1826.58C1736.19 1821.97 1730.89 1814.36 1729.16 1805.72C1727.44 1797.07 1729.41 1788.01 1734.58 1780.86L1759.86 1745.91C1764.07 1740.09 1764.57 1732.54 1761.15 1726.21C1757.73 1719.89 1751.13 1716.17 1744 1716.51C1743.72 1716.52 1743.44 1716.54 1743.15 1716.56C1742.3 1716.6 1741.54 1715.95 1741.49 1715.09C1741.44 1714.22 1742.1 1713.48 1742.96 1713.43C1743.26 1713.41 1743.56 1713.39 1743.85 1713.38C1752.22 1712.98 1759.91 1717.34 1763.9 1724.72C1767.9 1732.12 1767.32 1740.94 1762.4 1747.75L1737.12 1782.7C1732.39 1789.23 1730.66 1797.19 1732.24 1805.1C1733.82 1813.01 1738.47 1819.69 1745.35 1823.91C1746.08 1824.37 1746.32 1825.33 1745.86 1826.07C1745.57 1826.55 1745.05 1826.82 1744.53 1826.82Z" fill="#2B1841"/>
<path fill-rule="evenodd" clip-rule="evenodd" d="M1534.11 1791.09C1533.83 1791.09 1533.54 1791.02 1533.28 1790.87L1235.9 1621.51C1204.15 1603.43 1166.41 1600.68 1132.37 1613.96L798.915 1748.5C776.967 1757.36 752.934 1753.69 734.63 1738.69C716.324 1723.68 708.006 1700.84 712.379 1677.58L737.313 1544.94C737.484 1544.04 738.351 1543.44 739.256 1543.62C740.16 1543.79 740.755 1544.65 740.586 1545.56L715.651 1678.2C711.506 1700.24 719.39 1721.89 736.739 1736.11C754.088 1750.33 776.867 1753.81 797.669 1745.42L1131.14 1610.87C1166.14 1597.21 1204.92 1600.04 1237.55 1618.62L1534.93 1787.98C1535.73 1788.43 1536.01 1789.45 1535.55 1790.25C1535.25 1790.78 1534.68 1791.09 1534.11 1791.09Z" fill="#2B1841"/>
<path fill-rule="evenodd" clip-rule="evenodd" d="M853.104 1623.93C852.433 1623.93 851.801 1623.52 851.549 1622.86C851.221 1622 851.652 1621.03 852.511 1620.71L1005.98 1562.28C1006.84 1561.95 1007.8 1562.38 1008.13 1563.24C1008.46 1564.1 1008.03 1565.06 1007.17 1565.39L853.696 1623.82C853.5 1623.89 853.3 1623.93 853.104 1623.93Z" fill="#2B1841"/>
<path fill-rule="evenodd" clip-rule="evenodd" d="M905.85 1292L905.662 1291.33L905.583 1290.99L905.802 1291.68L906.241 1293.11L906.726 1294.73C906.365 1293.69 906.1 1292.93 905.85 1292ZM1043.03 1559.99C1052.09 1558.99 1059.23 1552.3 1065.29 1546.13C1065.77 1545.65 1066.26 1545.15 1066.71 1544.64C1079.26 1530.93 1084.87 1511.27 1080.36 1492.02L1080.31 1491.8L1069.32 1445.53L1051.97 1363.83L1044.04 1331.31V1331.29L1040.72 1317.66L1038.21 1307.56L1031.7 1281.4L1029.26 1271.54L1026.38 1260.01L1026.02 1258.57L1025.85 1257.86L1025.16 1255.38C1024.61 1253.5 1024.09 1251.79 1023.37 1249.82C1022.62 1247.81 1021.82 1245.83 1020.96 1243.87C1019.98 1241.69 1018.9 1239.56 1017.71 1237.48C1016.77 1235.8 1015.77 1234.15 1014.7 1232.53C1012.39 1228.97 1009.8 1225.59 1006.97 1222.45C995.559 1209.81 980.469 1200.92 963.891 1197.39C955.627 1195.63 947.033 1195.13 938.658 1196.05C936.593 1196.24 934.244 1196.64 932.069 1197.04C930.973 1197.25 929.814 1197.49 928.797 1197.73L928.092 1197.89L925.229 1198.56L920.735 1199.62L920.563 1199.65L890.791 1206.62L889.977 1206.81L884.123 1208.18L879.552 1209.25C869.628 1211.62 859.72 1213.99 849.812 1216.46C849.655 1216.49 849.498 1216.54 849.342 1216.57H849.326C846.43 1217.28 843.55 1217.98 840.669 1218.72C834.643 1220.21 828.632 1221.75 822.622 1223.3H822.605H822.59C817.017 1224.74 811.446 1226.2 805.888 1227.69C800.112 1229.23 794.352 1230.8 788.591 1232.4C775.803 1235.96 764.986 1243.25 756.988 1252.83C753.575 1256.9 750.679 1261.37 748.363 1266.16C741.617 1279.96 739.613 1296.23 743.871 1312.29C747.079 1324.42 753.45 1334.81 761.809 1342.78C776.679 1356.99 797.874 1363.59 818.958 1358.8L819.116 1358.77C849.357 1351.86 879.38 1344.09 909.34 1336.05L918.497 1333.55L923.6 1350.37L937.72 1396.13L958.076 1477.33C968.735 1527.34 950.942 1570.18 1043.03 1559.99Z" fill="#CCA6C2"/>
<path fill-rule="evenodd" clip-rule="evenodd" d="M979.357 1559.17H573.832L620.17 1455.8C620.17 1455.78 626.809 1434.8 626.809 1434.8L626.824 1434.75L629.704 1425.63L630.738 1422.37L663.305 1319.32L664.087 1316.83L670.476 1296.65L671.775 1292.53C674.405 1270.28 684.097 1251.85 698.376 1238.33C710.777 1226.58 726.621 1218.53 744.313 1214.93C744.815 1214.8 745.331 1214.71 745.848 1214.61C746.616 1214.47 747.399 1214.32 748.165 1214.19C751.015 1213.72 753.912 1213.35 756.855 1213.11L769.194 1209.43H769.209C796.145 1215.51 822.983 1217.32 850.617 1215.21C853.827 1214.97 858.071 1215.46 861.25 1215.06C865.133 1214.6 869.665 1209.89 873.5 1209.25C880.484 1208.07 887.404 1206.65 894.324 1205.11L894.778 1205.01C903.17 1203.13 915.042 1201.09 923.435 1199.13L923.607 1199.09C929.306 1208.85 931.15 1221.95 933.138 1238.46L940.825 1291.81L941.781 1298.43L942.094 1300.62L969.071 1487.68L970.496 1497.58L972.014 1508.12L972.233 1509.61L979.357 1559.17Z" fill="#EFCFD0"/>
<path fill-rule="evenodd" clip-rule="evenodd" d="M700.09 1292.32L702.912 1285.07C702.207 1287.54 701.25 1289.97 700.09 1292.32ZM861.615 1257.97C861.474 1257.65 861.318 1257.33 861.16 1257.01C858.794 1251.94 855.785 1247.23 852.209 1242.98C844.654 1233.95 834.637 1226.95 822.943 1223.2H822.927H822.912C821.876 1222.83 820.811 1222.52 819.745 1222.25C819.479 1222.17 819.197 1222.09 818.93 1222.03C807.44 1219.15 796.027 1216.79 784.536 1214.15H784.521C784.506 1214.15 784.49 1214.14 784.49 1214.14C782.059 1213.59 779.63 1213.03 777.2 1212.44L784.536 1214.15L769.816 1211.96L757.566 1210.33C757.535 1210.31 756.367 1209.88 756.335 1209.88L756.288 1209.87L748.826 1205.38L743.262 1204.08L739.092 1203.13L735.048 1202.18L693.021 1192.69L682.502 1190.36L679.868 1189.78L678.552 1189.5L675.965 1188.95L673.065 1188.44C665.353 1187.24 657.342 1187.08 649.519 1188.17C633.828 1190.28 619.015 1197.04 607.038 1207.36C601.066 1212.54 595.798 1218.59 591.44 1225.3C590.719 1226.42 590.03 1227.56 589.386 1228.72C587.726 1231.57 586.252 1234.49 584.982 1237.5C584.919 1237.62 584.857 1237.74 584.793 1237.86C584.245 1239.14 583.727 1240.44 583.242 1241.73L568.616 1274.17L557.33 1299.22C548.08 1319.77 538.754 1340.29 529.63 1360.92L502.118 1422.71C496.57 1435.36 490.974 1447.98 485.424 1460.64V1460.66C481.897 1468.65 478.402 1476.63 474.921 1484.64C462.397 1513.56 475.219 1547.36 503.592 1560.14C530.57 1572.28 561.97 1560.86 575.764 1534.88C576.109 1534.24 576.438 1533.58 576.768 1532.94C586.926 1513.64 596.911 1494.27 606.991 1474.94L627.543 1435.03L627.558 1434.98L632.449 1425.47L634.205 1422.08V1422.07L637.92 1414.85C648.266 1394.84 658.424 1374.74 668.645 1354.67L684.039 1324.37L685.277 1324.68L706.722 1329.73L748.732 1339.38C753.169 1340.37 757.605 1341.36 762.041 1342.35C770.852 1344.31 779.692 1346.28 788.519 1348.15C789.287 1348.32 790.039 1348.49 790.806 1348.64C825.248 1355.95 858.982 1333.42 866.145 1298.31C869.03 1284.17 867.149 1270.14 861.615 1257.97Z" fill="#EFCFD0"/>
<path fill-rule="evenodd" clip-rule="evenodd" d="M1031.8 1281.45L943.062 1301.37L915.903 1307.47L884.967 1221.25C884.967 1221.25 886.809 1215.11 891.289 1206.63L920.976 1199.65L921.148 1199.62L925.628 1198.56L928.483 1197.89L929.186 1197.73C930.201 1197.49 931.356 1197.25 932.448 1197.04C934.617 1196.64 936.959 1196.24 939.019 1196.05C947.37 1195.13 955.938 1195.63 964.18 1197.39C980.709 1200.92 995.755 1209.82 1007.13 1222.47C1009.96 1225.61 1012.54 1228.99 1014.84 1232.55C1015.91 1234.17 1016.9 1235.82 1017.84 1237.51C1019.03 1239.59 1020.1 1241.72 1021.09 1243.9C1021.95 1245.86 1022.74 1247.85 1023.49 1249.85C1024.21 1251.82 1024.73 1253.54 1025.27 1255.41L1025.96 1257.9L1026.13 1258.6L1026.49 1260.05L1029.36 1271.59L1031.8 1281.45Z" fill="#EFCFD0"/>
<path fill-rule="evenodd" clip-rule="evenodd" d="M872.846 1440.02C872.564 1442.05 872.158 1444.03 871.609 1446C871.186 1447.5 870.685 1448.97 870.105 1450.42C867.943 1455.95 864.733 1461.03 860.598 1465.33C859.861 1466.15 859.047 1466.93 858.201 1467.68C857.214 1468.59 856.181 1469.44 855.099 1470.24C851.183 1473.18 846.736 1475.51 841.832 1477.04C841.77 1477.08 841.723 1477.09 841.66 1477.11L841.597 1477.12L826.905 1481.68L668.97 1530.56L539.746 1570.56C526.416 1574.67 511.504 1574.04 497.845 1567.67C476.402 1557.65 464.294 1533.25 464.294 1509.04C464.294 1499.62 466.111 1490.26 469.933 1481.76C470.247 1481.04 470.575 1480.34 470.889 1479.63C479.833 1459.87 489.308 1441.38 498.393 1421.61C507.698 1401.09 517.19 1380.65 526.65 1360.2L540.873 1329.55L555.268 1298.98C559.137 1290.81 563.037 1282.65 566.953 1274.52C572.733 1262.48 578.575 1250.47 584.511 1238.51C584.575 1238.38 584.637 1238.27 584.7 1238.15C600.222 1207 637.345 1193.78 668.547 1208.77C682.346 1215.39 692.731 1226.41 698.824 1239.42C705.466 1253.55 707.063 1270.01 702.536 1285.72C701.644 1288.9 700.469 1292.06 699.043 1295.16C697.822 1297.83 696.585 1300.48 695.331 1303.14C691.901 1310.55 688.424 1317.95 684.915 1325.33C680.012 1335.64 675.062 1345.95 670.098 1356.22L655.296 1386.58L640.321 1416.88C639.475 1418.57 638.644 1420.27 637.799 1421.96C637.251 1423.08 636.687 1424.2 636.139 1425.33L815.141 1389.78L815.894 1389.62L820.045 1388.79C820.247 1388.76 820.436 1388.72 820.64 1388.69C835.803 1385.93 851.027 1391.38 861.177 1402.35H861.193C865.719 1407.23 869.243 1413.21 871.312 1420.04C871.342 1420.12 871.358 1420.2 871.39 1420.28C873.347 1426.9 873.77 1433.61 872.846 1440.02Z" fill="#CCA6C2"/>
<path fill-rule="evenodd" clip-rule="evenodd" d="M977.851 1552.18L935.085 1265.09C934.955 1264.29 936.102 1264.05 936.293 1264.83L1000.33 1552.18H977.851Z" fill="#2B1841"/>
<path fill-rule="evenodd" clip-rule="evenodd" d="M544.942 1572.79C557.357 1569.03 569.753 1565.19 582.141 1561.33L619.315 1549.75C644.084 1541.98 668.869 1534.28 693.588 1526.31C718.317 1518.37 742.967 1510.12 767.655 1502.01L804.629 1489.63L841.552 1477.03C864.998 1469.02 877.66 1443.11 869.835 1419.14C862.752 1397.46 841.313 1384.8 819.929 1388.52L781.547 1395.14L743.216 1401.98C717.701 1406.69 692.149 1411.26 666.674 1416.13C641.189 1420.97 615.772 1426.09 590.339 1431.14L552.206 1438.79C539.493 1441.33 526.788 1443.9 514.101 1446.55C479.629 1453.74 457.39 1488.14 464.429 1523.38C471.468 1558.62 505.118 1581.35 539.589 1574.16C541.369 1573.79 543.231 1573.3 544.942 1572.79Z" fill="#CCA6C2"/>
<path fill-rule="evenodd" clip-rule="evenodd" d="M781.473 1446.74C796.415 1442.28 811.307 1437.6 826.179 1432.83L848.459 1425.55L854.022 1423.7C855.825 1423.1 857.918 1422.39 859.187 1422C862.148 1421.06 864.935 1420.39 866.961 1420.06C869.047 1419.73 870.432 1419.67 871.906 1419.88C873.367 1420.09 875.115 1420.74 877.179 1422.06C879.228 1423.38 881.52 1425.14 883.793 1427.36L884.517 1428.03L885.104 1428.6C885.492 1429 885.866 1429.41 886.233 1429.85L886.51 1430.17L886.648 1430.34L886.865 1430.64L887.731 1431.85L889.465 1434.27C898.713 1447.15 908.12 1459.94 918.102 1472.37C921.908 1477.11 928.766 1477.81 933.419 1473.93C937.258 1470.73 938.388 1465.4 936.533 1460.98C930.327 1446.21 923.547 1431.8 916.61 1417.49L915.308 1414.81L914.657 1413.47L914.494 1413.13L914.25 1412.66L913.745 1411.73C913.051 1410.49 912.304 1409.28 911.509 1408.1C911.112 1407.5 910.701 1406.92 910.277 1406.33L909.632 1405.47L909.076 1404.76C906.221 1400.98 902.907 1397.17 898.832 1393.57C894.764 1389.99 889.683 1386.55 883.729 1384.24C877.801 1381.89 871.308 1380.91 865.607 1380.88C859.829 1380.84 854.896 1381.56 850.252 1382.37C847.707 1382.83 846.042 1383.19 844.068 1383.59L838.307 1384.75L815.293 1389.56C799.969 1392.85 784.666 1396.23 769.413 1399.82C756.602 1402.84 748.613 1415.87 751.574 1428.92C754.533 1441.98 767.317 1450.12 780.13 1447.1C780.557 1447 781.056 1446.87 781.473 1446.74Z" fill="#CCA6C2"/>
<path fill-rule="evenodd" clip-rule="evenodd" d="M765.93 1476.95L867.053 1436.78L851.735 1434.55C851.595 1434.4 851.93 1434.6 852.075 1434.67L852.707 1435.02C853.142 1435.27 853.601 1435.56 854.058 1435.85C854.978 1436.43 855.907 1437.07 856.827 1437.73C858.667 1439.06 860.469 1440.5 862.186 1442.03C865.623 1445.08 868.754 1448.44 871.353 1452.07C872.67 1453.88 873.858 1455.75 874.878 1457.69C875.921 1459.63 876.827 1461.62 877.536 1463.68C879.041 1467.78 879.755 1472.13 879.867 1476.66L879.884 1477.38C880.034 1483.44 884.978 1488.24 890.93 1488.09C896.082 1487.95 900.297 1484.16 901.243 1479.21C902.534 1472.44 902.854 1465.27 901.873 1458.26C901.433 1454.75 900.68 1451.29 899.699 1447.93C898.738 1444.55 897.523 1441.27 896.12 1438.11C893.333 1431.77 889.799 1425.91 885.794 1420.48C883.786 1417.77 881.653 1415.16 879.38 1412.65C878.236 1411.39 877.071 1410.15 875.829 1408.93C875.21 1408.32 874.581 1407.71 873.909 1407.09L872.874 1406.15C872.459 1405.8 872.23 1405.57 871.517 1405.03L871.516 1405.03C867.351 1401.99 862.278 1401.19 857.678 1402.4L856.197 1402.79L751.228 1430.92C738.516 1434.33 730.923 1447.58 734.267 1460.53C737.61 1473.48 750.626 1481.21 763.338 1477.81C764.221 1477.57 765.099 1477.28 765.93 1476.95Z" fill="#CCA6C2"/>
<path fill-rule="evenodd" clip-rule="evenodd" d="M747.302 1488.84L848.474 1448.53L834.875 1447.35L834.874 1447.35C834.673 1447.23 834.694 1447.23 834.7 1447.23C834.694 1447.21 834.694 1447.2 834.73 1447.21C834.788 1447.23 834.819 1447.22 834.903 1447.26C835.045 1447.3 835.202 1447.36 835.381 1447.44C835.726 1447.58 836.107 1447.75 836.493 1447.94C837.263 1448.33 838.069 1448.77 838.854 1449.26C840.441 1450.23 841.985 1451.36 843.438 1452.6C846.36 1455.07 848.906 1457.98 850.941 1461.28C853.001 1464.58 854.527 1468.31 855.501 1472.39C856.447 1476.48 856.848 1480.91 856.669 1485.53L856.653 1485.94C856.419 1492.03 861.062 1497.16 867.025 1497.4C872.187 1497.61 876.645 1494.08 877.903 1489.18C879.468 1483.09 880.366 1476.59 880.303 1469.87C880.218 1463.16 879.115 1456.22 876.845 1449.6C874.611 1442.96 871.276 1436.66 867.114 1431.04C865.033 1428.22 862.759 1425.56 860.258 1423.06C859.017 1421.8 857.701 1420.59 856.312 1419.4C855.616 1418.81 854.898 1418.22 854.125 1417.63C853.747 1417.33 853.341 1417.03 852.914 1416.73L852.229 1416.25L851.827 1415.98C851.688 1415.9 851.565 1415.81 851.217 1415.61L851.214 1415.61C847.324 1413.43 842.958 1413 838.98 1414.06L837.614 1414.43L732.593 1442.66C719.875 1446.07 712.277 1459.38 715.623 1472.37C718.969 1485.36 731.991 1493.12 744.709 1489.7C745.593 1489.47 746.47 1489.17 747.302 1488.84Z" fill="#CCA6C2"/>
<path fill-rule="evenodd" clip-rule="evenodd" d="M730.654 1498.92L833.192 1453.96L815.263 1450.38L815.262 1450.38C815.458 1450.46 815.982 1450.87 816.369 1451.15L817.642 1452.14C818.497 1452.81 819.352 1453.51 820.196 1454.22C821.882 1455.64 823.523 1457.11 825.081 1458.6C828.192 1461.57 831.026 1464.71 833.028 1467.54C834.034 1468.94 834.794 1470.25 835.249 1471.11C835.726 1472.01 835.86 1472.21 836.242 1471.92C836.424 1471.81 836.67 1471.67 836.817 1471.72C836.967 1471.76 836.984 1471.98 836.796 1472.29C836.44 1472.94 835.208 1473.84 833.665 1474.61L832.727 1475.08C827.382 1477.74 825.174 1484.29 827.796 1489.71C830.026 1494.33 835.041 1496.63 839.778 1495.58C843.036 1494.86 846.545 1493.84 850.295 1491.5C852.153 1490.33 854.053 1488.81 855.76 1486.85C857.467 1484.89 858.933 1482.48 859.91 1479.95C860.898 1477.41 861.408 1474.79 861.582 1472.37C861.758 1469.95 861.625 1467.7 861.349 1465.63C860.778 1461.48 859.679 1458 858.46 1454.83C855.982 1448.5 852.942 1443.26 849.729 1438.3C848.114 1435.82 846.442 1433.45 844.703 1431.12C843.832 1429.96 842.945 1428.81 842.031 1427.67L840.628 1425.95C840.115 1425.35 839.731 1424.87 839.003 1424.09L839 1424.08C834.436 1419.66 828.066 1418.34 822.427 1420.07L821.069 1420.5L714.236 1453.59C701.645 1457.49 694.554 1471.01 698.399 1483.78C702.244 1496.55 715.568 1503.75 728.16 1499.85C729.01 1499.58 729.855 1499.26 730.654 1498.92Z" fill="#CCA6C2"/>
<path fill-rule="evenodd" clip-rule="evenodd" d="M905.481 1456.63C904.876 1456.63 904.294 1456.28 904.014 1455.69C903.893 1455.44 891.673 1430.08 876.642 1423.68C875.813 1423.32 875.424 1422.35 875.772 1421.51C876.12 1420.67 877.077 1420.28 877.904 1420.63C894.072 1427.52 906.428 1453.17 906.945 1454.26C907.337 1455.08 906.998 1456.06 906.187 1456.46C905.96 1456.57 905.719 1456.63 905.481 1456.63Z" fill="#2B1841"/>
<path fill-rule="evenodd" clip-rule="evenodd" d="M879.523 1479.93C879.45 1479.93 879.377 1479.93 879.304 1479.92C878.423 1479.79 877.807 1478.96 877.927 1478.06C877.965 1477.77 881.595 1448.79 862.762 1442.35C861.918 1442.06 861.463 1441.13 861.745 1440.27C862.026 1439.41 862.939 1438.94 863.781 1439.23C872.69 1442.28 878.51 1450.1 880.609 1461.85C882.157 1470.52 881.158 1478.19 881.114 1478.51C881.005 1479.34 880.315 1479.93 879.523 1479.93Z" fill="#2B1841"/>
<path fill-rule="evenodd" clip-rule="evenodd" d="M856.492 1486.92C856.261 1486.92 856.026 1486.87 855.803 1486.77C854.978 1486.39 854.619 1485.4 854.998 1484.57C855.044 1484.47 859.57 1474.35 855.475 1465.92C852.943 1460.7 847.612 1457.11 839.629 1455.24C838.744 1455.03 838.193 1454.14 838.398 1453.25C838.605 1452.36 839.487 1451.8 840.374 1452.01C849.379 1454.12 855.458 1458.31 858.441 1464.48C863.217 1474.35 858.201 1485.49 857.985 1485.96C857.707 1486.57 857.113 1486.92 856.492 1486.92Z" fill="#2B1841"/>
<path fill-rule="evenodd" clip-rule="evenodd" d="M824.857 1482.26C824.162 1482.26 823.515 1481.83 823.287 1481.16C823.007 1480.32 823.48 1479.41 824.348 1479.14L831.261 1476.96L828.31 1476.07C827.439 1475.81 826.954 1474.91 827.225 1474.07C827.496 1473.22 828.42 1472.75 829.291 1473.01L837.195 1475.4C837.882 1475.61 838.351 1476.22 838.355 1476.92C838.36 1477.62 837.898 1478.24 837.215 1478.45L825.367 1482.18C825.198 1482.24 825.026 1482.26 824.857 1482.26Z" fill="#2B1841"/>
<path fill-rule="evenodd" clip-rule="evenodd" d="M1013.15 1570.83H1304.45L1382.55 1347.09H1101.41C1095.32 1347.09 1089.88 1350.99 1087.83 1356.83L1013.15 1570.83Z" fill="#2B1841"/>
<path fill-rule="evenodd" clip-rule="evenodd" d="M1036.41 1570.83H1322.63C1323.6 1570.83 1324.46 1570.21 1324.78 1569.28L1397.05 1361.98C1399.6 1354.72 1394.31 1347.09 1386.74 1347.09H1122.97C1115.92 1347.09 1109.63 1351.6 1107.26 1358.37L1034.26 1567.73C1033.73 1569.24 1034.83 1570.83 1036.41 1570.83Z" fill="#51478B"/>
<mask id="mask3" mask-type="alpha" maskUnits="userSpaceOnUse" x="1034" y="1346" width="364" height="225">
<path fill-rule="evenodd" clip-rule="evenodd" d="M1386.76 1346.71C1394.33 1346.71 1399.61 1354.36 1397.07 1361.64L1324.84 1569.38C1324.52 1570.31 1323.66 1570.93 1322.7 1570.93H1036.64C1035.07 1570.93 1033.97 1569.33 1034.5 1567.82L1107.45 1358.01C1109.82 1351.23 1116.1 1346.71 1123.15 1346.71H1386.76Z" fill="white"/>
</mask>
<g mask="url(#mask3)">
<path fill-rule="evenodd" clip-rule="evenodd" d="M1349.78 1310.19L990.765 1562.48L1082.17 1623.15L1452.91 1389.04L1349.78 1310.19Z" fill="#6E61B2"/>
</g>
<path fill-rule="evenodd" clip-rule="evenodd" d="M1203.25 1452.55C1202.04 1461.24 1208.03 1468.28 1216.64 1468.28C1225.24 1468.28 1233.19 1461.24 1234.4 1452.55C1235.61 1443.86 1229.62 1436.82 1221.02 1436.82C1212.41 1436.82 1204.46 1443.86 1203.25 1452.55Z" fill="white"/>
<path fill-rule="evenodd" clip-rule="evenodd" d="M875.645 1571.99H1232.23V1551.02H895.841C884.687 1551.02 875.645 1560.41 875.645 1571.99Z" fill="#51478B"/>
<path fill-rule="evenodd" clip-rule="evenodd" d="M1330.82 1551.02H1022.93C1022.03 1551.02 1021.31 1550.23 1021.31 1549.27C1021.31 1548.3 1022.03 1547.52 1022.93 1547.52H1330.82C1331.71 1547.52 1332.44 1548.3 1332.44 1549.27C1332.44 1550.23 1331.71 1551.02 1330.82 1551.02Z" fill="white"/>
<path fill-rule="evenodd" clip-rule="evenodd" d="M746.297 1221.25L743.078 1230.21L715.356 1307.47L694.849 1302.87L670.499 1297.4L568.23 1274.46L566.84 1274.15C572.603 1262.08 578.428 1250.02 584.348 1238.03C584.411 1237.9 584.472 1237.79 584.535 1237.66C585.8 1234.65 587.269 1231.72 588.924 1228.86C589.565 1227.69 590.251 1226.55 590.97 1225.43C595.312 1218.7 600.56 1212.62 606.511 1207.43C618.443 1197.07 633.203 1190.29 648.837 1188.17C656.631 1187.08 664.611 1187.24 672.296 1188.45L675.185 1188.96L677.762 1189.5L679.075 1189.79L681.698 1190.37L692.178 1192.71L734.051 1202.23L738.081 1203.18C740.845 1208 742.83 1212.3 744.156 1215.49C744.562 1216.47 744.906 1217.34 745.187 1218.07C745.953 1220.09 746.297 1221.25 746.297 1221.25Z" fill="#EFCFD0"/>
<path fill-rule="evenodd" clip-rule="evenodd" d="M684.969 1326.11C684.751 1326.11 684.528 1326.07 684.316 1325.97C683.511 1325.6 683.149 1324.62 683.511 1323.79L709.443 1264.16C709.804 1263.33 710.751 1262.96 711.557 1263.33C712.363 1263.7 712.723 1264.68 712.363 1265.51L686.43 1325.14C686.165 1325.75 685.581 1326.11 684.969 1326.11Z" fill="#2B1841"/>
<path fill-rule="evenodd" clip-rule="evenodd" d="M535.828 1451.96C535.114 1451.96 534.461 1451.48 534.268 1450.73C534.036 1449.84 534.547 1448.93 535.409 1448.69L637.052 1420.56C637.912 1420.32 638.802 1420.85 639.033 1421.73C639.266 1422.62 638.754 1423.54 637.891 1423.77L536.249 1451.91C536.108 1451.95 535.967 1451.96 535.828 1451.96Z" fill="#2B1841"/>
<path fill-rule="evenodd" clip-rule="evenodd" d="M702.715 1286.49C702.599 1286.49 702.483 1286.48 702.366 1286.45L575.117 1258.31C574.236 1258.11 573.678 1257.23 573.87 1256.33C574.062 1255.44 574.93 1254.87 575.811 1255.07L703.06 1283.21C703.942 1283.41 704.5 1284.29 704.308 1285.19C704.142 1285.96 703.465 1286.49 702.715 1286.49Z" fill="#2B1841"/>
<path fill-rule="evenodd" clip-rule="evenodd" d="M942.519 1285.33C941.776 1285.33 941.106 1284.8 940.94 1284.03C940.748 1283.14 941.3 1282.26 942.173 1282.07L1026.33 1263.22C1027.2 1263.03 1028.07 1263.59 1028.26 1264.48C1028.45 1265.37 1027.9 1266.25 1027.03 1266.45L942.869 1285.29C942.752 1285.31 942.634 1285.33 942.519 1285.33Z" fill="#2B1841"/>
<path fill-rule="evenodd" clip-rule="evenodd" d="M748.846 1214.25C748.722 1210.76 748.659 1207.63 748.627 1204.92L757.957 1207.09C757.957 1207.09 757.988 1207.11 758.035 1207.12C758.066 1207.12 758.098 1207.14 758.129 1207.15L769.869 1209.46H769.884C797.34 1213.45 825.377 1214.07 853.004 1211.95C856.213 1211.71 859.407 1211.37 862.584 1210.97C866.466 1210.51 870.317 1209.93 874.153 1209.29C875.608 1247.85 877.258 1295.95 817.963 1294.73C758.667 1293.51 749.988 1249.81 748.846 1214.25Z" fill="#CCA6C2"/>
<path fill-rule="evenodd" clip-rule="evenodd" d="M836.769 1095.95L851.919 1224.81C854.91 1250.26 836.705 1273.32 811.254 1276.31C785.805 1279.31 762.748 1261.1 759.755 1235.65C759.443 1232.99 759.383 1230.09 759.519 1227.5L767.148 1097.97C768.283 1078.7 784.828 1063.99 804.103 1065.13C821.29 1066.14 834.84 1079.42 836.769 1095.95Z" fill="#CCA6C2"/>
<path fill-rule="evenodd" clip-rule="evenodd" d="M846.51 1178.95C846.51 1178.95 837.758 1177.6 823.319 1170.18C821.552 1169.27 819.808 1171.42 821.078 1172.94L849.693 1206.03L846.51 1178.95Z" fill="#2B1841"/>
<mask id="mask4" mask-type="alpha" maskUnits="userSpaceOnUse" x="733" y="1019" width="164" height="162">
<path fill-rule="evenodd" clip-rule="evenodd" d="M733.883 1019.64H896.75V1180.24H733.883V1019.64Z" fill="white"/>
</mask>
<g mask="url(#mask4)">
<path fill-rule="evenodd" clip-rule="evenodd" d="M734.464 1075.07C736.632 1088.76 737.91 1088.08 739.708 1096.28C739.994 1097.61 740.363 1098.93 740.8 1100.24C745.221 1113.47 756.818 1125.84 767.525 1134.25C767.525 1134.25 809.56 1171.61 846.368 1178.99C860.789 1181.88 874.437 1180.16 884.42 1169.76C916.489 1136.3 877.613 1072.09 862.419 1049.86C862.217 1049.54 862.017 1049.2 861.798 1048.88C858.234 1043.22 853.763 1038.12 848.604 1033.82C846.183 1031.8 843.763 1030.02 841.259 1028.49C836.368 1025.47 831.174 1023.33 825.157 1021.92C816.266 1019.85 807.038 1019.27 797.946 1019.85C795.375 1020.01 792.803 1020.27 790.231 1020.61C774.483 1022.71 757.087 1026.56 745.574 1038.27C738.128 1045.84 734.263 1055.75 733.91 1066.07C733.809 1069.05 733.994 1072.06 734.464 1075.07Z" fill="#CCA6C2"/>
</g>
<path fill-rule="evenodd" clip-rule="evenodd" d="M771.706 1121.65C770.871 1136.06 758.516 1147.06 744.111 1146.23C729.705 1145.39 718.704 1133.03 719.539 1118.63C720.375 1104.22 732.729 1093.22 747.136 1094.06C761.54 1094.89 772.542 1107.25 771.706 1121.65Z" fill="#CCA6C2"/>
<path fill-rule="evenodd" clip-rule="evenodd" d="M754.975 1123.39C754.759 1123.39 754.538 1123.35 754.326 1123.26L733.811 1114.66C732.955 1114.3 732.552 1113.32 732.91 1112.46C733.269 1111.61 734.254 1111.2 735.109 1111.56L755.626 1120.16C756.481 1120.51 756.885 1121.5 756.526 1122.36C756.256 1123 755.631 1123.39 754.975 1123.39Z" fill="#2B1841"/>
<path fill-rule="evenodd" clip-rule="evenodd" d="M742.223 1126.99C742.023 1126.99 741.821 1126.96 741.624 1126.88C740.757 1126.55 740.322 1125.58 740.653 1124.71L743.6 1117C743.931 1116.13 744.899 1115.7 745.769 1116.03C746.637 1116.36 747.071 1117.33 746.739 1118.2L743.793 1125.91C743.537 1126.58 742.9 1126.99 742.223 1126.99Z" fill="#2B1841"/>
<mask id="mask5" mask-type="alpha" maskUnits="userSpaceOnUse" x="733" y="1019" width="109" height="48">
<path fill-rule="evenodd" clip-rule="evenodd" d="M733.91 1019.64H841.259V1066.07H733.91V1019.64Z" fill="white"/>
</mask>
<g mask="url(#mask5)">
<path fill-rule="evenodd" clip-rule="evenodd" d="M733.91 1066.07C771.239 1058.78 807.526 1046.09 841.259 1028.49C836.367 1025.47 831.174 1023.33 825.157 1021.92C816.266 1019.85 807.038 1019.27 797.946 1019.85C795.374 1020.01 792.804 1020.27 790.231 1020.61C774.483 1022.71 757.087 1026.56 745.574 1038.28C738.128 1045.84 734.263 1055.75 733.91 1066.07Z" fill="#C17B8A"/>
</g>
<path fill-rule="evenodd" clip-rule="evenodd" d="M747.332 1067.78C747.332 1068.85 748.201 1069.72 749.273 1069.72C750.344 1069.72 751.213 1068.85 751.213 1067.78C751.213 1066.7 750.344 1065.84 749.273 1065.84C748.201 1065.84 747.332 1066.7 747.332 1067.78Z" fill="#C17B8A"/>
<path fill-rule="evenodd" clip-rule="evenodd" d="M751.094 1081.48C751.094 1082.55 751.963 1083.42 753.035 1083.42C754.106 1083.42 754.977 1082.55 754.977 1081.48C754.977 1080.4 754.106 1079.53 753.035 1079.53C751.963 1079.53 751.094 1080.4 751.094 1081.48Z" fill="#C17B8A"/>
<path fill-rule="evenodd" clip-rule="evenodd" d="M753.017 1092.5C753.017 1093.57 753.886 1094.44 754.958 1094.44C756.029 1094.44 756.899 1093.57 756.899 1092.5C756.899 1091.43 756.029 1090.56 754.958 1090.56C753.886 1090.56 753.017 1091.43 753.017 1092.5Z" fill="#C17B8A"/>
<path fill-rule="evenodd" clip-rule="evenodd" d="M744.161 1075.93C744.161 1077.01 745.03 1077.87 746.103 1077.87C747.173 1077.87 748.043 1077.01 748.043 1075.93C748.043 1074.86 747.173 1073.99 746.103 1073.99C745.03 1073.99 744.161 1074.86 744.161 1075.93Z" fill="#C17B8A"/>
<path fill-rule="evenodd" clip-rule="evenodd" d="M755.366 1072.98C755.366 1074.06 756.236 1074.93 757.308 1074.93C758.379 1074.93 759.248 1074.06 759.248 1072.98C759.248 1071.91 758.379 1071.04 757.308 1071.04C756.236 1071.04 755.366 1071.91 755.366 1072.98Z" fill="#C17B8A"/>
<path fill-rule="evenodd" clip-rule="evenodd" d="M737.263 1069.72C737.263 1070.79 738.132 1071.66 739.204 1071.66C740.275 1071.66 741.144 1070.79 741.144 1069.72C741.144 1068.65 740.275 1067.78 739.204 1067.78C738.132 1067.78 737.263 1068.65 737.263 1069.72Z" fill="#C17B8A"/>
<path fill-rule="evenodd" clip-rule="evenodd" d="M739.708 1083.68C739.708 1084.75 740.577 1085.62 741.649 1085.62C742.72 1085.62 743.589 1084.75 743.589 1083.68C743.589 1082.61 742.72 1081.74 741.649 1081.74C740.577 1081.74 739.708 1082.61 739.708 1083.68Z" fill="#C17B8A"/>
<path fill-rule="evenodd" clip-rule="evenodd" d="M746.102 1088.25C746.102 1089.32 746.971 1090.19 748.043 1090.19C749.114 1090.19 749.984 1089.32 749.984 1088.25C749.984 1087.18 749.114 1086.31 748.043 1086.31C746.971 1086.31 746.102 1087.18 746.102 1088.25Z" fill="#C17B8A"/>
<path fill-rule="evenodd" clip-rule="evenodd" d="M758.315 1086.72C758.315 1087.8 759.185 1088.67 760.257 1088.67C761.328 1088.67 762.198 1087.8 762.198 1086.72C762.198 1085.65 761.328 1084.78 760.257 1084.78C759.185 1084.78 758.315 1085.65 758.315 1086.72Z" fill="#C17B8A"/>
<path fill-rule="evenodd" clip-rule="evenodd" d="M847.492 1027.67C847.492 1027.67 899.85 1061.55 885.54 1118.74L833.021 1032.99L847.492 1027.67Z" fill="#C0989C"/>
<path fill-rule="evenodd" clip-rule="evenodd" d="M764.641 1139.09C764.641 1139.09 768.173 1136.98 770.717 1133.25C771.103 1132.68 771.982 1132.85 772.115 1133.52C773.02 1138.13 773.831 1150.31 763.417 1160.35L764.641 1139.09Z" fill="#2B1841"/>
<path fill-rule="evenodd" clip-rule="evenodd" d="M849.737 1180.56C812.964 1173.19 770.969 1135.86 770.969 1135.86C762.641 1129.33 753.775 1120.38 748.184 1110.51L747.899 1109.99C746.421 1107.35 745.195 1104.63 744.272 1101.89C743.835 1100.58 743.466 1099.26 743.18 1097.93C741.383 1089.74 740.107 1090.42 737.941 1076.74C734.936 1057.77 742.861 1040.97 759.853 1031.81C782.74 1019.45 812.393 1016.27 836.841 1026.7C836.908 1026.74 832.314 1026.75 832.381 1026.79C861.228 1039.23 881.069 1072.09 891.764 1099.71C900.512 1122.29 906.39 1151.91 887.751 1171.34C877.777 1181.73 864.143 1183.45 849.737 1180.56Z" fill="#CCA6C2"/>
<path fill-rule="evenodd" clip-rule="evenodd" d="M843.716 1178.65C843.716 1178.65 832.944 1176.86 818.674 1169.52C816.928 1168.63 815.203 1170.75 816.46 1172.26L845.827 1197.94L843.716 1178.65Z" fill="#2B1841"/>
<path fill-rule="evenodd" clip-rule="evenodd" d="M761.415 1142.58C761.415 1142.58 764.85 1140.53 767.322 1136.91C767.7 1136.36 768.554 1136.51 768.682 1137.17C769.563 1141.65 770.351 1153.5 760.226 1163.25L761.415 1142.58Z" fill="#2B1841"/>
<path fill-rule="evenodd" clip-rule="evenodd" d="M841.867 1031.72C835.124 1045.63 824.443 1057.94 812.283 1067.65C791.869 1084 766.77 1094.3 740.823 1097.49C739.098 1089.76 737.834 1090.21 735.724 1076.89C732.751 1058.12 740.592 1041.51 757.402 1032.44C780.042 1020.21 809.377 1017.07 833.562 1027.39C833.628 1027.42 833.694 1027.44 833.761 1027.47C836.586 1028.68 839.293 1030.11 841.867 1031.72Z" fill="#C17B8A"/>
<path d="M735.728 1114.49L756.003 1122.98" stroke="#2B1841" stroke-width="2.851" stroke-linecap="round" stroke-linejoin="round"/>
<path d="M746.312 1118.92L743.4 1126.55" stroke="#2B1841" stroke-width="2.851" stroke-linecap="round" stroke-linejoin="round"/>
<path fill-rule="evenodd" clip-rule="evenodd" d="M887.298 1172.14C887.298 1172.14 841.259 1195.42 792.246 1149.91C775.766 1134.61 773.702 1113.61 774.411 1100.17C776.736 1056.1 847.493 1027.67 847.493 1027.67C847.493 1027.67 810.004 994.229 732.197 1017.22C689.645 1029.8 694.969 1191.59 685.701 1235.79C676.433 1279.99 685.701 1304.96 729.062 1331.05C772.423 1357.14 939.423 1356.16 904.907 1235.79C899.549 1217.11 880.099 1188 880.099 1188C892.673 1179.74 887.298 1172.14 887.298 1172.14Z" fill="#C0989C"/>
<path d="M879.472 1188.04C880.005 1188.73 879.884 1189.71 879.202 1190.24L878.876 1190.49C878.608 1190.69 878.24 1190.95 877.772 1191.27C876.618 1192.06 875.241 1192.95 873.643 1193.89C869.098 1196.58 863.682 1199.27 857.404 1201.78C854.578 1202.9 851.631 1203.97 848.564 1204.97C847.741 1205.24 846.857 1204.79 846.59 1203.96C846.322 1203.14 846.772 1202.26 847.595 1201.99C850.596 1201.01 853.479 1199.97 856.243 1198.86C862.366 1196.42 867.638 1193.81 872.047 1191.2C873.583 1190.29 874.901 1189.44 875.997 1188.69L876.622 1188.25L877.273 1187.77C877.955 1187.24 878.94 1187.36 879.472 1188.04Z" fill="#2B1841"/>
<path d="M686.349 1241.51C687.05 1241.01 688.03 1241.16 688.537 1241.86L688.828 1242.25C688.927 1242.37 689.045 1242.52 689.183 1242.69L689.327 1242.87C690.006 1243.7 690.818 1244.63 691.763 1245.63C694.472 1248.51 697.686 1251.39 701.39 1254.08C709.133 1259.7 717.941 1263.71 727.765 1265.43C728.618 1265.58 729.188 1266.39 729.038 1267.24C728.889 1268.1 728.077 1268.67 727.225 1268.52C716.9 1266.71 707.658 1262.5 699.549 1256.61C695.679 1253.81 692.319 1250.8 689.482 1247.78C688.486 1246.73 687.625 1245.74 686.9 1244.85L686.596 1244.48C686.318 1244.13 686.118 1243.87 685.999 1243.7C685.491 1243 685.648 1242.02 686.349 1241.51Z" fill="#2B1841"/>
<path d="M706.336 1075.9C706.627 1075.08 707.524 1074.66 708.339 1074.95C709.153 1075.24 709.577 1076.14 709.286 1076.95L709.115 1077.46L708.841 1078.34C708.776 1078.56 708.709 1078.79 708.64 1079.03C708.144 1080.77 707.646 1082.78 707.181 1085.07C704.912 1096.18 704.24 1108.87 706.134 1122.45C708.704 1140.88 715.778 1158.88 728.335 1175.8C729.049 1176.76 729.78 1177.72 730.528 1178.67C731.063 1179.35 730.945 1180.33 730.264 1180.87C729.584 1181.4 728.599 1181.29 728.064 1180.6C727.298 1179.63 726.55 1178.65 725.818 1177.66C712.94 1160.31 705.672 1141.82 703.03 1122.88C701.084 1108.92 701.775 1095.88 704.11 1084.44C704.539 1082.34 704.995 1080.45 705.455 1078.78L705.628 1078.17C705.737 1077.79 705.842 1077.43 705.942 1077.11L706.234 1076.19C706.278 1076.06 706.312 1075.96 706.336 1075.9Z" fill="#2B1841"/>
<path d="M898.506 1254.11C898.931 1253.36 899.887 1253.09 900.64 1253.51C901.394 1253.94 901.66 1254.89 901.235 1255.65L901.136 1255.82C901.075 1255.92 900.997 1256.05 900.902 1256.21L900.801 1256.37C900.451 1256.93 900.027 1257.58 899.526 1258.31C898.105 1260.38 896.353 1262.68 894.251 1265.16C888.265 1272.21 880.679 1279.24 871.357 1285.81C863.232 1291.53 854.14 1296.63 844.033 1300.94C843.237 1301.28 842.317 1300.9 841.977 1300.11C841.638 1299.31 842.008 1298.39 842.804 1298.05C852.706 1293.83 861.606 1288.84 869.552 1283.25C878.651 1276.84 886.043 1269.98 891.863 1263.13C893.894 1260.74 895.581 1258.52 896.943 1256.54C897.337 1255.97 897.679 1255.45 897.97 1254.99L898.373 1254.33C898.434 1254.23 898.478 1254.16 898.506 1254.11Z" fill="#2B1841"/>
<path fill-rule="evenodd" clip-rule="evenodd" d="M904.642 1099.34C904.642 1099.34 895.974 1110.05 881.88 1109.55C875.907 1109.33 868.954 1107.12 861.308 1101.18C861.308 1101.18 868.756 1092.64 881.154 1091.81C887.724 1091.35 895.668 1093.04 904.642 1099.34Z" fill="white"/>
<path fill-rule="evenodd" clip-rule="evenodd" d="M904.642 1099.34C904.642 1099.34 895.974 1110.05 881.88 1109.55C879.9 1107.16 878.698 1104.17 878.556 1100.83C878.414 1097.5 879.384 1094.36 881.154 1091.81C887.724 1091.35 895.668 1093.04 904.642 1099.34Z" fill="#2B1841"/>
<path d="M849.568 1093.01C850.446 1092.77 851.351 1093.24 851.668 1094.08L851.72 1094.24L858.989 1120.72C860.297 1125.48 856.794 1130.18 851.907 1130.33L851.639 1130.33L845.588 1130.32C844.62 1130.31 843.839 1129.53 843.841 1128.56C843.844 1127.65 844.546 1126.9 845.438 1126.82L845.598 1126.81L851.649 1126.83C854.285 1126.84 856.222 1124.4 855.664 1121.86L855.612 1121.65L848.342 1095.17C848.086 1094.23 848.635 1093.27 849.568 1093.01Z" fill="#2B1841"/>
<path d="M867.192 1078.34C877.59 1074.26 889.277 1074.29 901.061 1081.14C901.897 1081.63 902.181 1082.7 901.694 1083.53C901.208 1084.37 900.136 1084.65 899.3 1084.17C888.535 1077.91 877.946 1077.89 868.47 1081.6C867.1 1082.14 865.882 1082.71 864.833 1083.28L864.285 1083.59C863.966 1083.77 863.74 1083.91 863.61 1084C862.809 1084.54 861.72 1084.33 861.179 1083.53C860.637 1082.73 860.847 1081.64 861.649 1081.1L861.871 1080.95C862.169 1080.76 862.6 1080.51 863.158 1080.2C864.331 1079.57 865.681 1078.93 867.192 1078.34Z" fill="#2B1841"/>
<path fill-rule="evenodd" clip-rule="evenodd" d="M843.664 1099.34C843.664 1099.34 834.997 1110.05 820.902 1109.55C814.929 1109.33 807.977 1107.12 800.33 1101.18C800.33 1101.18 807.778 1092.64 820.176 1091.81C826.746 1091.35 834.69 1093.04 843.664 1099.34Z" fill="white"/>
<path fill-rule="evenodd" clip-rule="evenodd" d="M843.664 1099.34C843.664 1099.34 834.997 1110.05 820.902 1109.55C818.922 1107.16 817.721 1104.17 817.579 1100.83C817.437 1097.5 818.406 1094.36 820.176 1091.81C826.746 1091.35 834.69 1093.04 843.664 1099.34Z" fill="#2B1841"/>
<path d="M800.772 1081.14C812.555 1074.29 824.242 1074.26 834.64 1078.34C836.151 1078.93 837.501 1079.57 838.674 1080.2L839.121 1080.45C839.606 1080.73 839.963 1080.95 840.184 1081.1C840.985 1081.64 841.196 1082.73 840.654 1083.53C840.112 1084.33 839.023 1084.54 838.222 1084L837.956 1083.83C837.73 1083.69 837.41 1083.5 837 1083.28C835.951 1082.71 834.733 1082.14 833.362 1081.6C823.886 1077.89 813.297 1077.91 802.532 1084.17C801.696 1084.65 800.624 1084.37 800.138 1083.53C799.652 1082.7 799.936 1081.63 800.772 1081.14Z" fill="#2B1841"/>
<path d="M834.609 1133.92C835.468 1133.62 836.405 1134.02 836.78 1134.83L836.903 1135.14C836.969 1135.3 837.077 1135.53 837.23 1135.81C837.597 1136.49 838.067 1137.17 838.646 1137.81C840.555 1139.9 843.141 1140.99 846.674 1140.57C847.634 1140.45 848.506 1141.14 848.62 1142.1C848.735 1143.06 848.049 1143.93 847.088 1144.05C842.376 1144.61 838.695 1143.06 836.057 1140.17C834.71 1138.69 833.913 1137.21 833.54 1136.16C833.218 1135.24 833.697 1134.24 834.609 1133.92Z" fill="#2B1841"/>
<path fill-rule="evenodd" clip-rule="evenodd" d="M885.493 1071.08C881.839 1071.08 878.199 1071.88 874.787 1073.46C868.619 1076.33 863.937 1081.42 861.6 1087.81C856.778 1100.99 863.58 1115.64 876.763 1120.46C889.945 1125.28 904.594 1118.48 909.416 1105.3C911.753 1098.91 911.461 1092 908.598 1085.83C905.734 1079.66 900.639 1074.98 894.253 1072.64C891.401 1071.6 888.443 1071.08 885.493 1071.08ZM885.477 1126.2C882.103 1126.2 878.672 1125.62 875.323 1124.4C859.97 1118.78 852.047 1101.72 857.664 1086.37C860.385 1078.93 865.839 1073 873.021 1069.66C880.204 1066.32 888.255 1065.99 895.694 1068.71C903.13 1071.43 909.064 1076.88 912.399 1084.06C915.734 1091.25 916.073 1099.3 913.353 1106.74C908.962 1118.74 897.576 1126.2 885.477 1126.2Z" fill="#B55C7E"/>
<path fill-rule="evenodd" clip-rule="evenodd" d="M821.094 1071.19C817.441 1071.19 813.801 1071.98 810.387 1073.57C804.221 1076.43 799.537 1081.53 797.201 1087.91C792.379 1101.1 799.181 1115.74 812.364 1120.57C825.547 1125.39 840.195 1118.59 845.017 1105.4C849.839 1092.22 843.037 1077.57 829.854 1072.75C827.002 1071.71 824.044 1071.19 821.094 1071.19ZM821.079 1126.31C817.703 1126.31 814.273 1125.73 810.924 1124.5C795.571 1118.89 787.649 1101.83 793.265 1086.47C795.986 1079.04 801.439 1073.1 808.622 1069.77C815.805 1066.43 823.857 1066.09 831.294 1068.81C846.647 1074.43 854.57 1091.49 848.953 1106.84C844.562 1118.85 833.176 1126.31 821.079 1126.31Z" fill="#B55C7E"/>
<path fill-rule="evenodd" clip-rule="evenodd" d="M795.136 1090.41C795.045 1090.43 794.952 1090.45 794.857 1090.47L746.13 1097.02C745.065 1097.17 744.087 1096.42 743.943 1095.36C743.801 1094.29 744.55 1093.32 745.611 1093.17L794.338 1086.61C795.402 1086.47 796.381 1087.22 796.524 1088.28C796.654 1089.25 796.048 1090.15 795.136 1090.41Z" fill="#B55C7E"/>
<path fill-rule="evenodd" clip-rule="evenodd" d="M848.993 1094.44C848.385 1094.44 847.781 1094.18 847.366 1093.67C846.636 1092.77 846.771 1091.45 847.668 1090.72C852.603 1086.7 857.632 1088.18 859.601 1089.52C860.558 1090.17 860.803 1091.48 860.152 1092.43C859.504 1093.38 858.213 1093.63 857.257 1093C856.91 1092.77 853.933 1091.02 850.316 1093.97C849.927 1094.29 849.458 1094.44 848.993 1094.44Z" fill="#B55C7E"/>
<mask id="mask6" mask-type="alpha" maskUnits="userSpaceOnUse" x="1397" y="489" width="425" height="626">
<path d="M1397.83 489.825H1821.01V1114.03H1397.83V489.825Z" fill="white"/>
</mask>
<g mask="url(#mask6)">
<path fill-rule="evenodd" clip-rule="evenodd" d="M1397.83 489.825V1114.03H1773.57C1799.77 1114.03 1821.01 1092.81 1821.01 1066.64V1024.84V489.825H1397.83Z" fill="#CEC5F7"/>
</g>
<path fill-rule="evenodd" clip-rule="evenodd" d="M1469.95 781.917H1749.62V567.501H1469.95V781.917Z" fill="#6E61B2"/>
<path fill-rule="evenodd" clip-rule="evenodd" d="M1663.34 848.339H1470C1468.68 848.339 1467.62 847.296 1467.62 846.008C1467.62 844.72 1468.68 843.678 1470 843.678H1663.34C1664.65 843.678 1665.72 844.72 1665.72 846.008C1665.72 847.296 1664.65 848.339 1663.34 848.339Z" fill="#2B1841"/>
<path fill-rule="evenodd" clip-rule="evenodd" d="M1663.34 977.687H1470C1468.68 977.687 1467.62 976.645 1467.62 975.357C1467.62 974.069 1468.68 973.026 1470 973.026H1663.34C1664.65 973.026 1665.72 974.069 1665.72 975.357C1665.72 976.645 1664.65 977.687 1663.34 977.687Z" fill="#2B1841"/>
<path fill-rule="evenodd" clip-rule="evenodd" d="M1749.58 912.43H1469.99C1468.68 912.43 1467.62 911.388 1467.62 910.1C1467.62 908.812 1468.68 907.769 1469.99 907.769H1749.58C1750.89 907.769 1751.95 908.812 1751.95 910.1C1751.95 911.388 1750.89 912.43 1749.58 912.43Z" fill="#2B1841"/>
<path fill-rule="evenodd" clip-rule="evenodd" d="M1676.21 780.752H1469.95V724.055L1558.76 610.618L1676.21 780.752Z" fill="#D384AF"/>
<path fill-rule="evenodd" clip-rule="evenodd" d="M1703.01 650.821C1703.01 667.876 1689.18 681.701 1672.13 681.701C1655.07 681.701 1641.25 667.876 1641.25 650.821C1641.25 633.765 1655.07 619.94 1672.13 619.94C1689.18 619.94 1703.01 633.765 1703.01 650.821Z" fill="#ECE0CA"/>
<path fill-rule="evenodd" clip-rule="evenodd" d="M1774.09 1114.03C1761 1114.03 1749.14 1108.69 1740.55 1100.06C1731.97 1091.43 1726.66 1079.52 1726.66 1066.36V1024.3H1324.29V1066.36C1324.29 1079.52 1329.59 1091.43 1338.18 1100.06C1346.77 1108.69 1358.62 1114.03 1371.72 1114.03H1774.09Z" fill="#6E61B2"/>
<mask id="mask7" mask-type="alpha" maskUnits="userSpaceOnUse" x="928" y="318" width="536" height="298">
<path fill-rule="evenodd" clip-rule="evenodd" d="M928.734 318.102H1463.26V615.279H928.734V318.102Z" fill="white"/>
</mask>
<g mask="url(#mask7)">
<path fill-rule="evenodd" clip-rule="evenodd" d="M1430.12 615.279H961.869C943.569 615.279 928.734 600.443 928.734 582.142V351.237C928.734 332.937 943.569 318.102 961.869 318.102H1430.12C1448.42 318.102 1463.26 332.937 1463.26 351.237V582.142C1463.26 600.443 1448.42 615.279 1430.12 615.279Z" fill="#E3C3BE"/>
</g>
<path fill-rule="evenodd" clip-rule="evenodd" d="M1203.45 478.588C1185.43 478.588 1167.39 473.459 1151.49 463.161L940.598 326.592C939.73 326.031 939.482 324.871 940.045 324.003C940.606 323.134 941.766 322.885 942.634 323.448L1153.52 460.016C1185 480.4 1225.21 479.712 1255.97 458.264L1444.97 326.486C1445.81 325.894 1446.98 326.103 1447.57 326.952C1448.17 327.801 1447.96 328.967 1447.11 329.559L1258.11 461.337C1241.64 472.822 1222.56 478.588 1203.45 478.588Z" fill="#2B1841"/>
<mask id="mask8" mask-type="alpha" maskUnits="userSpaceOnUse" x="1343" y="237" width="203" height="203">
<path fill-rule="evenodd" clip-rule="evenodd" d="M1343.69 237.771H1545.31V439.39H1343.69V237.771Z" fill="white"/>
</mask>
<g mask="url(#mask8)">
<path fill-rule="evenodd" clip-rule="evenodd" d="M1545.31 338.58C1545.31 394.255 1500.18 439.39 1444.5 439.39C1388.83 439.39 1343.69 394.255 1343.69 338.58C1343.69 282.905 1388.83 237.771 1444.5 237.771C1500.18 237.771 1545.31 282.905 1545.31 338.58Z" fill="#6E61B2"/>
</g>
<path fill-rule="evenodd" clip-rule="evenodd" d="M1429.55 370.175C1429.55 365.578 1431.14 361.675 1434.33 358.465C1437.51 355.256 1441.41 353.651 1446.01 353.651C1450.65 353.651 1454.56 355.256 1457.75 358.465C1460.94 361.675 1462.53 365.578 1462.53 370.175C1462.53 374.774 1460.94 378.676 1457.75 381.887C1454.56 385.096 1450.65 386.701 1446.01 386.701C1441.41 386.701 1437.51 385.096 1434.33 381.887C1431.14 378.676 1429.55 374.774 1429.55 370.175ZM1445.87 344.979C1444.5 344.979 1443.13 344.239 1441.74 342.761C1440.35 341.282 1438.74 338.811 1436.92 335.352C1434.15 330.07 1432.03 324.71 1430.57 319.27C1429.12 313.831 1428.39 308.47 1428.39 303.19C1428.39 296.18 1429.94 290.74 1433.03 286.87C1436.13 283.002 1440.45 281.066 1446.01 281.066C1451.56 281.066 1455.86 283.002 1458.91 286.87C1461.96 290.74 1463.49 296.18 1463.49 303.19C1463.49 307.515 1463 311.886 1462.02 316.3C1461.04 320.717 1459.57 325.245 1457.61 329.889C1455.47 334.941 1453.42 338.72 1451.47 341.224C1449.51 343.728 1447.64 344.979 1445.87 344.979Z" fill="white"/>
</g>
<defs>
<filter id="filter0_d" x="0" y="0" width="1920.26" height="1930.88" filterUnits="userSpaceOnUse" color-interpolation-filters="sRGB">
<feFlood flood-opacity="0" result="BackgroundImageFix"/>
<feColorMatrix in="SourceAlpha" type="matrix" values="0 0 0 0 0 0 0 0 0 0 0 0 0 0 0 0 0 0 127 0"/>
<feOffset dy="4"/>
<feGaussianBlur stdDeviation="2"/>
<feColorMatrix type="matrix" values="0 0 0 0 0.478431 0 0 0 0 0.333333 0 0 0 0 0.603922 0 0 0 0.35 0"/>
<feBlend mode="normal" in2="BackgroundImageFix" result="effect1_dropShadow"/>
<feBlend mode="normal" in="SourceGraphic" in2="effect1_dropShadow" result="shape"/>
</filter>
</defs>
</svg>
